HIERARCHY
ROOT root
{
	OFFSET 0.000000 0.000000 0.000000
	CHANNELS 6 Xposition Yposition Zposition Zrotation Yrotation Xrotation
	JOINT lhip
	{
		OFFSET 0.058581 -0.082280 -0.017664
		CHANNELS 3 Zrotation Yrotation Xrotation
		JOINT lknee
		{
			OFFSET 0.043451 -0.386469 0.008037
			CHANNELS 3 Zrotation Yrotation Xrotation
			JOINT lankle
			{
				OFFSET -0.014790 -0.426874 -0.037428
				CHANNELS 3 Zrotation Yrotation Xrotation
				JOINT ltoe
				{
					OFFSET 0.041054 -0.060286 0.122042
					CHANNELS 3 Zrotation Yrotation Xrotation
					End Site
					{
						OFFSET 0.000000 0.000000 0.000000
					}
				}
			}
		}
	}
	JOINT rhip
	{
		OFFSET -0.060310 -0.090513 -0.013543
		CHANNELS 3 Zrotation Yrotation Xrotation
		JOINT rknee
		{
			OFFSET -0.043257 -0.383688 -0.004843
			CHANNELS 3 Zrotation Yrotation Xrotation
			JOINT rankle
			{
				OFFSET 0.019056 -0.420046 -0.034562
				CHANNELS 3 Zrotation Yrotation Xrotation
				JOINT rtoe
				{
					OFFSET -0.034840 -0.062106 0.130323
					CHANNELS 3 Zrotation Yrotation Xrotation
					End Site
					{
						OFFSET 0.000000 0.000000 0.000000
					}
				}
			}
		}
	}
	JOINT lowerback
	{
		OFFSET 0.004439 0.124404 -0.038385
		CHANNELS 3 Zrotation Yrotation Xrotation
		JOINT upperback
		{
			OFFSET 0.004488 0.137956 0.026820
			CHANNELS 3 Zrotation Yrotation Xrotation
			JOINT chest
			{
				OFFSET -0.002265 0.056032 0.002855
				CHANNELS 3 Zrotation Yrotation Xrotation
				JOINT lowerneck
				{
					OFFSET -0.013390 0.211636 -0.033468
					CHANNELS 3 Zrotation Yrotation Xrotation
					JOINT upperneck
					{
						OFFSET 0.010113 0.088937 0.050410
						CHANNELS 3 Zrotation Yrotation Xrotation
						End Site
						{
							OFFSET 0.000000 0.000000 0.000000
						}
					}
				}
				JOINT lclavicle
				{
					OFFSET 0.071702 0.114000 -0.018898
					CHANNELS 3 Zrotation Yrotation Xrotation
					JOINT lshoulder
					{
						OFFSET 0.122921 0.045205 -0.019046
						CHANNELS 3 Zrotation Yrotation Xrotation
						JOINT lelbow
						{
							OFFSET 0.255332 -0.015649 -0.022946
							CHANNELS 3 Zrotation Yrotation Xrotation
							JOINT lwrist
							{
								OFFSET 0.265709 0.012698 -0.007375
								CHANNELS 3 Zrotation Yrotation Xrotation
								End Site
								{
									OFFSET 0.000000 0.000000 0.000000
								}
							}
						}
					}
				}
				JOINT rclavicle
				{
					OFFSET -0.082954 0.112472 -0.023707
					CHANNELS 3 Zrotation Yrotation Xrotation
					JOINT rshoulder
					{
						OFFSET -0.113228 0.046853 -0.008472
						CHANNELS 3 Zrotation Yrotation Xrotation
						JOINT relbow
						{
							OFFSET -0.260127 -0.014369 -0.031269
							CHANNELS 3 Zrotation Yrotation Xrotation
							JOINT rwrist
							{
								OFFSET -0.269108 0.006794 -0.006027
								CHANNELS 3 Zrotation Yrotation Xrotation
								End Site
								{
									OFFSET 0.000000 0.000000 0.000000
								}
							}
						}
					}
				}
			}
		}
	}
}
MOTION
Frames: 13
Frame Time: 0.033333
-0.078985 0.481943 0.977746 173.526005 9.230391 75.259760 16.860074 2.462836 15.794191 -4.761997 -13.965998 11.623531 -4.702301 -0.050544 -26.160919 0.000000 -0.000000 0.000000 8.955295 1.194098 10.336784 0.420427 12.446030 11.398539 3.683578 6.406352 -16.638635 0.000000 -0.000000 0.000000 -8.820576 0.862657 6.778658 1.648187 -2.609756 10.061564 2.317069 -0.713902 -0.399689 7.816209 6.909069 14.147987 7.818098 3.279540 4.504364 -16.422675 8.803003 9.856337 -60.072196 5.848172 1.066868 18.564188 -62.333860 2.887913 -0.544466 -14.952054 -18.327081 17.474418 -2.869345 6.673421 58.897473 -3.579410 5.402916 -12.139777 47.868726 12.692152 18.651606 6.573737 -10.246455 
-0.082547 0.477258 0.979473 173.786648 9.102693 75.859129 16.303201 2.383194 14.610272 -4.821702 -13.899690 11.970632 -4.477376 0.064598 -25.893884 0.000000 -0.000000 0.000000 8.573289 1.467000 9.570062 0.402150 12.383535 11.032455 3.978407 6.189800 -16.187100 0.000000 -0.000000 0.000000 -8.322195 1.089509 7.889972 1.339908 -2.325104 9.747569 2.233338 -0.515812 -0.025638 7.217803 6.400655 13.147661 7.726718 2.983390 3.845638 -16.521512 8.772806 9.541890 -60.535586 6.605942 0.990845 16.930339 -60.690749 4.684298 -1.266853 -14.857458 -17.296697 17.328072 -2.401441 6.591780 58.858489 -3.483794 5.563928 -11.701936 48.862576 12.865204 18.089744 6.772520 -9.813737 
-0.085853 0.472843 0.981373 174.059762 8.891166 76.462398 15.718221 2.384449 13.468225 -4.922578 -13.948891 12.229498 -4.379459 0.258107 -25.678357 0.000000 -0.000000 0.000000 8.076811 1.668266 8.862194 0.397746 12.482525 10.602788 4.266376 5.828917 -15.801015 0.000000 -0.000000 0.000000 -7.636682 1.373771 9.297975 1.046111 -2.012919 9.333026 2.209947 -0.413282 0.404984 6.501417 5.782557 12.097039 7.633094 2.683412 3.356092 -16.770910 8.966442 9.186153 -60.545606 7.555410 0.800146 15.070267 -59.332461 6.401550 -1.739445 -15.029185 -15.908306 17.391201 -1.959128 6.316046 58.033422 -3.414726 5.921967 -10.677345 50.371770 13.356677 16.981565 7.228532 -9.203112 
-0.088433 0.469732 0.982484 174.345553 8.589533 77.185342 15.133126 2.376465 12.418520 -4.984251 -13.843798 12.262037 -4.381229 0.299444 -25.483342 0.000000 -0.000000 0.000000 7.516516 1.857382 7.994274 0.376532 12.335065 10.414755 4.569126 5.793496 -15.506379 0.000000 -0.000000 0.000000 -7.187885 1.581892 10.047639 0.940795 -1.811032 9.164091 2.128423 -0.331915 0.716547 6.247921 5.490885 11.450795 7.386675 2.190187 2.797096 -16.836112 9.209210 9.073547 -60.499876 8.267772 0.855935 14.117193 -58.704500 7.548674 -1.672617 -15.088256 -15.432886 17.418123 -1.816992 6.062996 57.361268 -3.102805 6.233334 -9.731456 51.576718 13.906487 15.638108 7.635446 -9.060853 
-0.091772 0.466002 0.983809 174.818087 8.045155 78.320759 14.236232 2.379596 10.988645 -5.059492 -13.758636 12.070021 -4.391648 0.266914 -25.199659 0.000000 -0.000000 0.000000 6.663701 2.099193 6.640665 0.292913 12.160011 10.267260 4.883054 5.682530 -15.195265 0.000000 -0.000000 0.000000 -6.683917 1.816486 10.806644 0.946096 -1.602152 9.030368 2.089517 -0.203959 1.130191 5.882814 5.090974 10.770070 6.983594 1.391011 1.880766 -16.776098 9.618177 9.008447 -60.327321 9.186504 0.992711 12.734048 -58.341227 8.926322 -1.522595 -15.169766 -15.340117 17.452728 -1.676181 5.806513 56.452618 -2.537025 6.599121 -8.890566 53.201946 13.919141 13.864307 8.133923 -9.126759 
-0.094969 0.463030 0.984997 175.324813 7.371019 79.520808 13.118120 2.210411 9.617001 -5.045894 -13.771807 11.736008 -4.270992 0.428502 -24.875661 0.000000 -0.000000 0.000000 5.737936 2.394506 5.246666 0.180643 12.056377 10.209969 5.051624 5.488983 -15.039162 0.000000 -0.000000 0.000000 -6.131969 1.998882 11.391730 1.033686 -1.409771 8.969425 2.034768 -0.086022 1.476657 5.523323 4.657764 10.091453 6.486491 0.404507 1.171342 -16.635093 10.047011 8.987070 -59.960333 9.952638 1.153889 11.490605 -58.329375 10.013193 -1.699322 -15.280912 -15.589102 17.534937 -1.514087 5.625605 55.813791 -1.939975 6.929768 -9.060124 54.501343 12.659165 12.068364 8.546592 -9.602646 
-0.097976 0.461173 0.986027 175.890699 6.640053 80.674987 11.737711 1.693651 8.330734 -4.824246 -13.818636 11.448766 -3.825406 0.957949 -24.435446 0.000000 -0.000000 0.000000 4.795249 2.771124 3.994623 0.070194 11.947559 10.195502 5.096653 5.213709 -15.050622 0.000000 -0.000000 0.000000 -5.449495 2.149870 11.844261 1.189880 -1.243033 8.912599 1.964537 -0.020907 1.814862 5.151169 4.178834 9.486301 5.895085 -0.624212 0.577809 -16.444942 10.410289 9.015306 -59.550837 10.329995 1.315595 10.854372 -58.420397 10.632370 -2.126696 -15.368678 -15.722902 17.625860 -1.418567 5.454749 55.567507 -1.336957 7.189862 -10.162116 55.273321 10.456459 10.388911 8.783448 -10.417085 
-0.101215 0.460734 0.987031 176.733412 5.719904 81.862009 10.025349 0.864501 7.106019 -4.436844 -13.887919 11.095175 -3.114334 1.496407 -23.701769 0.000000 -0.000000 0.000000 3.702912 3.166066 2.750406 -0.109849 11.737326 10.436440 5.002610 4.844342 -15.350503 0.000000 -0.000000 0.000000 -4.495270 2.259990 12.452403 1.462398 -1.073070 8.676606 1.938427 0.024930 2.341784 4.555233 3.496445 8.930583 5.079518 -1.897317 -0.459568 -16.247362 10.762949 8.851627 -59.011332 10.075897 1.514315 11.229708 -58.594217 10.180318 -2.506818 -15.377294 -15.908810 17.743892 -1.462524 5.161213 55.724816 -0.675358 7.422367 -12.198305 55.445128 7.143738 8.307035 8.826526 -11.349376 
-0.102822 0.461717 0.987339 177.376430 4.915457 82.612431 9.021903 0.641380 6.621482 -4.277820 -13.705407 10.415452 -2.842776 1.287580 -22.917476 0.000000 -0.000000 0.000000 2.926688 3.421080 1.797123 -0.362682 11.466827 11.166234 4.788975 4.746400 -15.952914 0.000000 -0.000000 0.000000 -3.899704 2.181423 13.034960 1.579222 -0.907062 8.365635 1.968580 0.119090 2.693139 3.779785 2.917695 8.794464 4.365116 -2.595525 -2.214130 -16.199211 10.941366 8.284638 -58.137733 9.560299 1.619101 12.308275 -59.084479 8.540710 -2.780132 -15.664039 -16.006711 17.862773 -1.397062 4.922652 56.122433 -0.366956 7.644811 -13.717671 54.964775 4.680421 6.937542 8.711177 -11.281399 
-0.103008 0.463402 0.987130 177.906053 4.091354 83.301434 8.314780 1.050061 6.330791 -4.168273 -13.517984 9.596208 -2.951830 0.615211 -22.192121 0.000000 -0.000000 0.000000 2.314194 3.675173 0.622724 -0.699308 11.057688 12.493991 4.361073 4.865168 -16.860018 0.000000 -0.000000 0.000000 -3.610547 1.940187 13.556733 1.474285 -0.745288 8.171548 1.971829 0.363338 2.738323 2.630743 2.323414 9.036665 3.961967 -3.175311 -4.965878 -16.230323 10.813259 7.338812 -56.411770 8.852530 1.470431 14.198459 -60.091489 6.016880 -3.505798 -16.408523 -14.998164 18.169740 -1.005045 4.905396 56.573531 -0.431497 7.697550 -14.607025 54.167782 3.005545 6.028904 8.626587 -10.360772 
-0.101877 0.465788 0.986640 178.465567 3.482300 83.879417 7.878156 1.435289 5.960202 -4.158234 -13.600985 9.250691 -3.166752 0.037126 -21.672020 0.000000 -0.000000 0.000000 2.042302 3.963898 -0.530093 -0.966499 10.680991 14.046224 3.784219 4.639297 -17.828358 0.000000 -0.000000 0.000000 -3.441676 1.689741 14.092159 1.271755 -0.595934 8.030798 1.867711 0.662506 2.555610 1.609541 1.809128 8.757631 4.175014 -4.176113 -6.480759 -16.212446 10.004913 6.467834 -53.921829 7.498466 1.149258 17.181265 -61.170487 2.340067 -4.008330 -16.981278 -13.576573 18.534633 -0.425559 5.054986 56.965510 -1.178692 7.643508 -14.730729 53.427027 2.600206 5.719630 8.623108 -9.298317 
-0.100006 0.469247 0.986158 179.330506 3.189376 84.208788 7.690088 1.153255 5.494406 -4.350767 -13.997543 9.652312 -3.284148 -0.067199 -21.550065 0.000000 -0.000000 0.000000 2.010723 4.063037 -1.062809 -1.031548 10.329371 15.095937 3.436065 4.090778 -18.586119 0.000000 -0.000000 0.000000 -3.270184 1.651206 14.760986 1.222262 -0.596014 7.789407 1.787083 0.753118 2.386622 1.167959 1.497003 7.912437 4.792607 -5.344162 -6.101731 -16.002197 8.372993 5.957973 -51.159680 5.286707 1.077664 20.551710 -61.588515 -2.572038 -3.938329 -17.243588 -13.802335 18.654302 0.025106 5.081295 57.048129 -2.553305 7.875375 -13.932706 52.901171 3.660551 6.515580 8.545360 -8.680025 
-0.098044 0.473999 0.985862 -179.362901 3.172990 84.333585 7.730247 0.485829 5.044708 -4.613982 -14.616599 10.494243 -3.298786 -0.022668 -21.760676 0.000000 -0.000000 0.000000 2.007493 3.675698 -0.754694 -0.878112 9.893278 15.199738 3.399984 3.645470 -18.952949 0.000000 -0.000000 0.000000 -3.089840 1.734631 15.437674 1.382646 -0.988570 7.533629 1.906068 0.512013 2.252527 1.041441 1.261048 7.460240 5.446500 -5.946752 -5.534820 -15.670685 6.253655 5.621278 -48.457269 2.948558 1.276747 23.207935 -61.705924 -6.422414 -4.068413 -17.445553 -14.217970 18.425688 0.474412 4.896423 56.705344 -4.217882 8.272581 -12.212869 52.489731 5.973372 8.781575 8.343420 -8.523707 
